<?xml version="1.0" standalone="no"?>
<!DOCTYPE svg PUBLIC "-//W3C//DTD SVG 20010904//EN"
 "http://www.w3.org/TR/2001/REC-SVG-20010904/DTD/svg10.dtd">
<svg version="1.0" xmlns="http://www.w3.org/2000/svg"
 width="466.000000pt" height="337.000000pt" viewBox="0 0 466.000000 337.000000"
 preserveAspectRatio="xMidYMid meet">

<g transform="translate(0.000000,337.000000) scale(0.100000,-0.100000)"
fill="#000000" stroke="none">
<path d="M2242 3331 c-10 -6 -10 -10 2 -20 10 -9 16 -9 21 -1 10 16 -7 31 -23
21z"/>
<path d="M2340 3330 c-12 -8 -12 -10 3 -16 21 -8 35 2 21 16 -5 5 -15 6 -24 0z"/>
<path d="M2140 3315 c0 -10 7 -15 18 -13 21 4 19 22 -2 26 -10 2 -16 -3 -16
-13z"/>
<path d="M2433 3318 c2 -7 10 -13 17 -13 7 0 15 6 18 13 2 7 -5 12 -18 12 -13
0 -20 -5 -17 -12z"/>
<path d="M2044 3309 c-10 -17 13 -36 27 -22 12 12 4 33 -11 33 -5 0 -12 -5
-16 -11z"/>
<path d="M2532 3308 c6 -18 28 -21 28 -4 0 9 -7 16 -16 16 -9 0 -14 -5 -12
-12z"/>
<path d="M2636 3303 c-11 -11 -6 -23 9 -23 8 0 15 4 15 9 0 13 -16 22 -24 14z"/>
<path d="M1944 3289 c-3 -6 -1 -16 4 -21 13 -13 45 8 36 23 -7 12 -31 11 -40
-2z"/>
<path d="M1857 3274 c-14 -14 -7 -35 11 -32 9 2 17 10 17 17 0 16 -18 25 -28
15z"/>
<path d="M2725 3270 c3 -5 10 -10 16 -10 5 0 9 5 9 10 0 6 -7 10 -16 10 -8 0
-12 -4 -9 -10z"/>
<path d="M2826 3251 c-4 -7 -5 -15 -2 -18 9 -9 19 4 14 18 -4 11 -6 11 -12 0z"/>
<path d="M1756 3235 c-3 -9 1 -18 10 -22 19 -7 39 11 30 26 -10 16 -33 13 -40
-4z"/>
<path d="M2916 3222 c-3 -6 -1 -14 5 -17 15 -10 25 3 12 16 -7 7 -13 7 -17 1z"/>
<path d="M1672 3208 c-16 -16 -15 -25 2 -31 21 -8 40 17 23 31 -10 9 -17 8
-25 0z"/>
<path d="M3006 3181 c-4 -5 -2 -12 3 -15 5 -4 12 -2 15 3 4 5 2 12 -3 15 -5 4
-12 2 -15 -3z"/>
<path d="M1582 3167 c-7 -8 -7 -18 -2 -27 8 -13 11 -13 25 1 14 13 14 17 2 27
-11 10 -17 9 -25 -1z"/>
<path d="M2065 3141 c-107 -18 -124 -23 -280 -79 -376 -135 -691 -451 -845
-848 -131 -339 -131 -752 0 -1079 34 -85 108 -230 142 -278 l21 -29 48 48 48
47 -31 51 c-147 250 -217 550 -189 821 49 491 331 900 756 1101 201 95 354
128 595 128 257 0 409 -36 648 -156 l142 -71 71 13 c38 7 72 17 75 22 8 12
-28 40 -133 103 -182 110 -376 182 -566 209 -141 21 -372 19 -502 -3z"/>
<path d="M1497 3124 c-14 -15 -6 -34 14 -34 14 0 19 5 17 17 -3 18 -20 27 -31
17z"/>
<path d="M1406 3065 c-3 -9 1 -18 10 -22 19 -7 39 11 30 26 -10 16 -33 13 -40
-4z"/>
<path d="M1325 3010 c-8 -13 3 -30 20 -30 14 0 27 24 18 34 -10 9 -31 7 -38
-4z"/>
<path d="M1250 2945 c-10 -12 -9 -16 5 -21 19 -8 40 9 31 25 -10 15 -21 14
-36 -4z"/>
<path d="M3865 2900 c-38 -10 -151 -39 -250 -64 -182 -47 -245 -65 -245 -70 0
-2 37 -40 83 -84 l82 -81 -110 -113 c-61 -62 -153 -158 -205 -213 -137 -144
-501 -526 -594 -622 -44 -46 -82 -83 -86 -83 -4 0 -73 67 -155 150 -82 83
-154 150 -161 150 -6 0 -48 -39 -94 -87 -165 -174 -488 -511 -611 -638 -69
-71 -199 -208 -290 -302 -90 -95 -166 -173 -170 -173 -12 0 -142 204 -190 298
-26 50 -57 122 -69 160 -12 37 -29 78 -38 92 -8 13 -18 38 -21 54 -4 16 -12
31 -19 34 -10 3 -11 -9 -7 -50 11 -93 44 -189 117 -337 78 -160 153 -266 275
-391 65 -66 85 -82 95 -72 9 9 7 16 -11 33 l-22 21 23 27 c13 14 75 80 139
146 63 66 162 170 220 230 57 61 202 211 321 335 119 124 245 255 280 293 35
37 68 67 73 67 6 0 78 -67 160 -150 82 -82 155 -150 162 -150 7 0 16 6 20 14
4 8 80 90 168 182 88 92 165 172 170 178 24 26 269 282 385 401 298 310 373
386 381 383 5 -2 44 -38 88 -81 44 -42 82 -74 85 -69 3 5 10 37 15 73 6 35 29
152 52 259 53 252 55 270 38 269 -8 -1 -45 -9 -84 -19z"/>
<path d="M1180 2885 c-20 -24 4 -45 26 -24 13 14 13 17 1 27 -11 10 -17 9 -27
-3z"/>
<path d="M1111 2821 c-19 -12 -6 -43 16 -39 10 2 18 12 18 22 0 22 -14 29 -34
17z"/>
<path d="M1042 2733 c2 -10 10 -18 18 -18 8 0 16 8 18 18 2 12 -3 17 -18 17
-15 0 -20 -5 -18 -17z"/>
<path d="M2570 2210 c0 -269 4 -490 8 -490 5 0 19 12 33 27 13 16 41 47 61 71
l38 43 0 355 0 354 140 0 140 0 0 -205 c0 -113 3 -205 7 -205 4 0 34 28 68 63
l61 63 -1 204 0 205 -278 3 -277 2 0 -490z"/>
<path d="M986 2663 c-9 -22 10 -41 25 -26 13 13 5 43 -10 43 -5 0 -12 -8 -15
-17z"/>
<path d="M933 2584 c-8 -21 13 -42 28 -27 13 13 5 43 -11 43 -6 0 -13 -7 -17
-16z"/>
<path d="M883 2504 c-8 -21 13 -42 28 -27 13 13 5 43 -11 43 -6 0 -13 -7 -17
-16z"/>
<path d="M835 2420 c-8 -14 3 -30 21 -30 8 0 14 9 14 20 0 21 -24 28 -35 10z"/>
<path d="M795 2330 c-8 -13 3 -30 20 -30 14 0 27 24 18 34 -10 9 -31 7 -38 -4z"/>
<path d="M3601 2296 l-43 -44 35 -88 c20 -49 48 -136 63 -194 27 -99 28 -117
29 -320 0 -231 2 -219 -66 -429 -84 -263 -276 -526 -499 -683 -93 -66 -261
-152 -360 -184 -67 -22 -96 -38 -136 -75 -28 -26 -74 -62 -103 -79 -28 -17
-51 -34 -51 -37 0 -17 225 29 352 73 165 57 293 127 433 239 276 220 445 485
526 825 67 275 55 566 -32 823 -37 108 -85 217 -96 217 -5 0 -28 -20 -52 -44z"/>
<path d="M1908 1978 c-2 -167 -2 -305 0 -307 1 -3 32 24 67 59 l65 64 0 178 0
179 142 -3 143 -3 -2 -123 -1 -123 61 -69 c34 -37 65 -65 70 -61 4 4 6 120 5
257 l-3 249 -272 3 -272 2 -3 -302z"/>
<path d="M760 2230 c0 -13 7 -20 20 -20 13 0 20 7 20 20 0 13 -7 20 -20 20
-13 0 -20 -7 -20 -20z"/>
<path d="M730 2140 c0 -15 5 -20 18 -18 9 2 17 10 17 18 0 8 -8 16 -17 18 -13
2 -18 -3 -18 -18z"/>
<path d="M717 2063 c-13 -12 -7 -33 8 -33 8 0 15 9 15 20 0 20 -11 26 -23 13z"/>
<path d="M692 1954 c4 -21 22 -23 26 -1 2 10 -3 17 -13 17 -10 0 -15 -6 -13
-16z"/>
<path d="M674 1869 c-10 -17 13 -36 27 -22 12 12 4 33 -11 33 -5 0 -12 -5 -16
-11z"/>
<path d="M1230 1413 l1 -458 69 73 70 74 0 319 0 319 140 0 140 0 0 -165 c0
-91 4 -165 8 -165 5 0 37 29 71 65 l62 65 -3 162 -3 163 -277 3 -278 2 0 -457z"/>
<path d="M3960 1859 c0 -5 5 -7 10 -4 6 3 10 8 10 11 0 2 -4 4 -10 4 -5 0 -10
-5 -10 -11z"/>
<path d="M3052 1726 c-44 -46 -62 -72 -62 -91 0 -26 1 -26 68 -23 l67 3 3 88
c1 48 -1 87 -6 87 -5 0 -37 -29 -70 -64z"/>
<path d="M670 1765 c0 -8 7 -15 15 -15 8 0 15 7 15 15 0 8 -7 15 -15 15 -8 0
-15 -7 -15 -15z"/>
<path d="M3970 1770 c0 -5 5 -10 10 -10 6 0 10 5 10 10 0 6 -4 10 -10 10 -5 0
-10 -4 -10 -10z"/>
<path d="M665 1671 c-3 -5 -1 -12 5 -16 12 -7 30 2 30 16 0 12 -27 12 -35 0z"/>
<path d="M3970 1670 c0 -5 7 -10 15 -10 8 0 15 5 15 10 0 6 -7 10 -15 10 -8 0
-15 -4 -15 -10z"/>
<path d="M670 1576 c0 -9 7 -16 16 -16 17 0 14 22 -4 28 -7 2 -12 -3 -12 -12z"/>
<path d="M3970 1575 c0 -9 5 -15 11 -13 6 2 11 8 11 13 0 5 -5 11 -11 13 -6 2
-11 -4 -11 -13z"/>
<path d="M2917 1509 c-116 -33 -214 -110 -272 -213 -61 -110 -67 -146 -74
-417 l-6 -245 -38 -76 c-46 -93 -111 -155 -207 -195 -60 -25 -75 -28 -190 -27
-106 1 -136 5 -200 27 -133 45 -140 49 -140 77 0 14 0 152 0 307 0 155 -3 284
-8 287 -5 3 -37 -23 -71 -58 l-61 -64 0 -206 c0 -113 -4 -206 -8 -206 -15 0
-103 62 -157 111 -29 27 -57 49 -62 49 -5 0 -28 -19 -51 -43 -49 -50 -50 -46
43 -124 185 -157 448 -279 654 -304 306 -39 559 106 650 371 18 50 24 97 28
203 l6 137 184 0 183 0 38 83 38 82 -220 5 -221 5 3 33 c3 45 45 125 85 163
17 17 55 43 82 57 48 26 56 27 255 30 l205 4 33 72 c18 39 32 77 32 84 0 9
-53 12 -232 11 -199 0 -243 -3 -301 -20z"/>
<path d="M3962 1486 c1 -10 8 -17 13 -17 15 1 12 24 -3 29 -9 3 -13 -2 -10
-12z"/>
<path d="M675 1481 c-7 -12 12 -24 25 -16 11 7 4 25 -10 25 -5 0 -11 -4 -15
-9z"/>
<path d="M695 1390 c-8 -13 4 -32 16 -25 12 8 12 35 0 35 -6 0 -13 -4 -16 -10z"/>
<path d="M3950 1384 c0 -9 5 -14 12 -12 18 6 21 28 4 28 -9 0 -16 -7 -16 -16z"/>
<path d="M2227 1344 c-4 -4 -7 -22 -7 -40 0 -29 -3 -32 -37 -39 -80 -15 -130
-106 -101 -183 17 -46 58 -74 146 -101 79 -24 112 -45 112 -71 0 -53 -103 -66
-189 -24 -28 15 -53 25 -55 23 -19 -29 -36 -60 -36 -68 0 -14 63 -46 118 -60
39 -11 42 -14 42 -46 0 -33 2 -35 35 -35 33 0 35 2 35 33 0 31 4 35 54 56 79
33 91 50 91 133 0 67 -1 71 -33 98 -19 16 -70 38 -122 54 -79 24 -91 30 -96
53 -6 21 -2 31 17 46 20 16 33 18 79 13 30 -4 65 -13 77 -21 29 -20 28 -20 53
22 17 29 19 38 8 45 -25 18 -78 38 -98 38 -20 0 -23 5 -24 50 -1 20 -7 26 -31
28 -17 2 -34 0 -38 -4z"/>
<path d="M3930 1295 c0 -8 7 -15 15 -15 8 0 15 7 15 15 0 8 -7 15 -15 15 -8 0
-15 -7 -15 -15z"/>
<path d="M3904 1209 c-10 -17 13 -36 27 -22 12 12 4 33 -11 33 -5 0 -12 -5
-16 -11z"/>
<path d="M3875 1121 c-8 -15 3 -31 21 -31 9 0 14 7 12 17 -4 20 -24 28 -33 14z"/>
<path d="M3847 1034 c-14 -14 -7 -35 11 -32 9 2 17 10 17 17 0 16 -18 25 -28
15z"/>
<path d="M3796 942 c-9 -14 12 -35 28 -29 23 9 20 37 -3 37 -11 0 -22 -4 -25
-8z"/>
<path d="M3753 854 c-3 -8 -1 -20 6 -27 14 -14 47 15 37 32 -10 16 -36 13 -43
-5z"/>
<path d="M1901 625 c2 -104 6 -168 13 -174 11 -8 95 -31 115 -31 7 0 11 43 11
123 l0 123 -63 62 c-34 34 -66 62 -70 62 -5 0 -7 -74 -6 -165z"/>
<path d="M3710 775 c-10 -11 -10 -19 -2 -27 15 -15 44 -2 40 19 -4 23 -22 27
-38 8z"/>
<path d="M3653 694 c-7 -18 11 -39 26 -30 17 11 13 46 -4 46 -9 0 -18 -7 -22
-16z"/>
<path d="M3593 614 c-3 -8 -1 -20 6 -27 14 -14 47 15 37 32 -10 16 -36 13 -43
-5z"/>
<path d="M3537 553 c-14 -13 -7 -33 11 -33 24 0 32 8 25 26 -5 15 -25 19 -36
7z"/>
<path d="M3467 474 c-9 -10 2 -24 19 -24 8 0 14 7 14 15 0 15 -21 21 -33 9z"/>
<path d="M3406 413 c-11 -11 -6 -23 9 -23 8 0 15 4 15 9 0 13 -16 22 -24 14z"/>
<path d="M3325 340 c-3 -5 1 -10 9 -10 9 0 16 5 16 10 0 6 -4 10 -9 10 -6 0
-13 -4 -16 -10z"/>
<path d="M3250 279 c0 -5 5 -7 10 -4 6 3 10 8 10 11 0 2 -4 4 -10 4 -5 0 -10
-5 -10 -11z"/>
</g>
</svg>
